Coordinates
version=1
nRows=5
nColumns=63
inDegrees=yes

Units are S.I. units (second, meters, Newtons, ...)
If the header above contains a line with 'inDegrees', this indicates whether rotational values are in degrees (yes) or radians (no).

endheader
time	pelvis_tilt	pelvis_list	pelvis_rotation	pelvis_tx	pelvis_ty	pelvis_tz	hip_flexion_r	hip_adduction_r	hip_rotation_r	knee_angle_r	knee_angle_r_beta	ankle_angle_r	subtalar_angle_r	mtp_angle_r	hip_flexion_l	hip_adduction_l	hip_rotation_l	knee_angle_l	knee_angle_l_beta	ankle_angle_l	subtalar_angle_l	mtp_angle_l	L5_S1_Flex_Ext	L5_S1_Lat_Bending	L5_S1_axial_rotation	L4_L5_Flex_Ext	L4_L5_Lat_Bending	L4_L5_axial_rotation	L3_L4_Flex_Ext	L3_L4_Lat_Bending	L3_L4_axial_rotation	L2_L3_Flex_Ext	L2_L3_Lat_Bending	L2_L3_axial_rotation	L1_L2_Flex_Ext	L1_L2_Lat_Bending	L1_L2_axial_rotation	L1_T12_Flex_Ext	L1_T12_Lat_Bending	L1_T12_axial_rotation	Abs_r3	Abs_r2	Abs_r1	Abs_t1	Abs_t2	neck_flexion	neck_bending	neck_rotation	arm_flex_r	arm_add_r	arm_rot_r	elbow_flex_r	pro_sup_r	wrist_flex_r	wrist_dev_r	arm_flex_l	arm_add_l	arm_rot_l	elbow_flex_l	pro_sup_l	wrist_flex_l	wrist_dev_l
      3.75000000	    -52.09427396	     -0.63359401	     -0.87005112	     -0.36292577	      0.98728091	      0.03349157	    110.06448160	     -8.43535339	     -0.62048346	     99.68247436	      1.73978738	     -0.97709994	     -6.61101451	      0.00000000	    116.31630959	     -6.34382905	      2.98774377	     67.92587723	      1.18553020	      0.75306176	      3.60409118	      0.00000000	     -0.08884579	      0.02803356	      0.41207215	     -0.16499553	      0.03728464	      0.43782666	     -0.14596476	      0.06816080	      0.43782666	     -0.10154186	      0.06816080	      0.36056313	     -0.08250221	      0.05716604	      0.33480862	     -0.05076649	      0.04342399	      0.30905411	     -0.63461663	      0.31712125	      2.29182169	      0.00000000	      0.00000000	     -0.00000000	      0.00000000	     -0.00000000	     69.43935316	    -10.03531438	      5.34340071	     37.96443582	     28.83905518	      0.00000000	      5.00000047	     72.74393402	     -6.57627964	      8.57461639	     33.23641409	     36.77506519	      0.00000000	      5.00000047
      3.75800000	    -52.08075418	     -1.26327115	     -0.72668102	     -0.36257484	      0.98717323	      0.03197326	    110.97656874	     -9.08256212	     -0.82820274	    101.46986689	      1.77098327	      0.25119388	     -5.33395360	      0.00000000	    115.00138037	     -5.73076430	      3.62389694	     66.15400063	      1.15460512	     -0.04261254	      3.75647554	      0.00000000	     -0.08829230	      0.13664999	      0.38210796	     -0.16396763	      0.18174449	      0.40598971	     -0.14505542	      0.33225078	      0.40598971	     -0.10090927	      0.33225078	      0.33434447	     -0.08198823	      0.27865666	      0.31046272	     -0.05045022	      0.21167083	      0.28658097	     -0.63066307	      1.54581201	      2.12516986	      0.00000000	      0.00000000	     -0.00000000	      0.00000000	     -0.00000000	     69.81514534	    -10.33795592	      6.57156325	     37.73843141	     28.89679739	      0.00000000	      5.00000046	     72.45798998	     -6.46892982	      8.09510980	     33.19057569	     36.61810467	      0.00000000	      5.00000046
      3.76700000	    -52.07639248	     -1.68634156	     -0.97045052	     -0.36227583	      0.98713496	      0.03117953	    111.94981038	     -9.22759308	     -0.94451153	    103.10396028	      1.79950358	      1.23458498	     -4.46469804	      0.00000000	    113.71644580	     -5.63797426	      4.14539051	     64.58158856	      1.12716136	     -0.59157382	      3.75315085	      0.00000000	     -0.08922032	      0.21663027	      0.42991495	     -0.16569106	      0.28811826	      0.45678463	     -0.14658007	      0.52671484	      0.45678463	     -0.10196991	      0.52671484	      0.37617558	     -0.08284999	      0.44175245	      0.34930590	     -0.05098049	      0.33556029	      0.32243621	     -0.63729184	      2.45056495	      2.39105797	      0.00000000	      0.00000000	     -0.00000000	      0.00000000	     -0.00000000	     70.09435537	    -10.58016828	      7.52291760	     37.62016160	     28.92598223	      0.00000000	      5.00000044	     72.21421243	     -6.33521945	      7.65943100	     33.26006029	     36.46719384	      0.00000000	      5.00000044
      3.77500000	    -52.09305858	     -1.94737686	     -1.46302791	     -0.36204677	      0.98723106	      0.03089221	    112.99664461	     -9.03076925	     -1.04925847	    104.56648487	      1.82502945	      1.74294549	     -4.40483767	      0.00000000	    112.45512343	     -5.89824792	      4.54268936	     63.12038028	      1.10165846	     -1.00536663	      3.73675668	      0.00000000	     -0.08924289	      0.27395988	      0.52777551	     -0.16573297	      0.36436664	      0.56076148	     -0.14661714	      0.66610606	      0.56076148	     -0.10199570	      0.66610606	      0.46180357	     -0.08287095	      0.55865899	      0.42881760	     -0.05099339	      0.42436386	      0.39583163	     -0.63745304	      3.09908898	      2.93532905	      0.00000000	      0.00000000	     -0.00000000	      0.00000000	     -0.00000000	     70.26050456	    -10.65923885	      7.69130302	     37.62565939	     28.95943481	      0.00000000	      5.00000044	     71.99943591	     -6.28667615	      7.59234109	     33.33446621	     36.45437984	      0.00000000	      5.00000044
      3.78300000	    -52.07064975	     -2.21029357	     -1.98244522	     -0.36161855	      0.98704447	      0.03073490	    114.08286153	     -8.86371246	     -1.22964844	    106.11046590	      1.85197700	      2.20923439	     -4.38569260	      0.00000000	    111.36708159	     -6.30142765	      4.77131149	     62.10387817	      1.08391715	     -1.36767830	      3.68167205	      0.00000000	     -0.08742989	      0.33203201	      0.61555663	     -0.16236605	      0.44160257	      0.65402892	     -0.14363857	      0.80730262	      0.65402892	     -0.09992362	      0.80730262	      0.53861205	     -0.08118740	      0.67707967	      0.50013976	     -0.04995744	      0.51431758	      0.46166747	     -0.62450298	      3.75601246	      3.42354130	      0.00000000	      0.00000000	     -0.00000000	      0.00000000	     -0.00000000	     70.34248993	    -10.61219848	      7.80572506	     37.71311357	     29.04340628	      0.00000000	      5.00000044	     71.75334261	     -6.36395192	      7.53944162	     33.39392514	     36.47826393	      0.00000000	      5.00000044
